<mxfile host="app.diagrams.net" modified="2022-04-05T12:48:56.776Z" agent="5.0 (Windows NT 10.0; Win64; x64) AppleWebKit/537.36 (KHTML, like Gecko) Chrome/100.0.4896.60 Safari/537.36" etag="Gc5cFz5XSoF3ARyYl4hK" version="17.4.0" type="github">
  <diagram id="iYByPpJ_oPp_mW1mYyfL" name="Page-1">
    <mxGraphModel dx="1022" dy="460" grid="1" gridSize="10" guides="1" tooltips="1" connect="1" arrows="1" fold="1" page="1" pageScale="1" pageWidth="827" pageHeight="1169" math="0" shadow="0">
      <root>
        <mxCell id="0" />
        <mxCell id="1" parent="0" />
        <mxCell id="f-ChVy6gcCZhDP5a--pV-11" value="" style="edgeStyle=orthogonalEdgeStyle;rounded=0;orthogonalLoop=1;jettySize=auto;html=1;" parent="1" source="f-ChVy6gcCZhDP5a--pV-1" target="f-ChVy6gcCZhDP5a--pV-2" edge="1">
          <mxGeometry relative="1" as="geometry" />
        </mxCell>
        <mxCell id="f-ChVy6gcCZhDP5a--pV-1" value="INÍCIO" style="ellipse;whiteSpace=wrap;html=1;" parent="1" vertex="1">
          <mxGeometry x="350" y="140" width="120" height="80" as="geometry" />
        </mxCell>
        <mxCell id="f-ChVy6gcCZhDP5a--pV-12" value="" style="edgeStyle=orthogonalEdgeStyle;rounded=0;orthogonalLoop=1;jettySize=auto;html=1;" parent="1" source="f-ChVy6gcCZhDP5a--pV-2" target="f-ChVy6gcCZhDP5a--pV-3" edge="1">
          <mxGeometry relative="1" as="geometry" />
        </mxCell>
        <mxCell id="f-ChVy6gcCZhDP5a--pV-2" value="N1 = Digite primeira &lt;br&gt;nota do aluno" style="shape=parallelogram;perimeter=parallelogramPerimeter;whiteSpace=wrap;html=1;fixedSize=1;" parent="1" vertex="1">
          <mxGeometry x="320" y="250" width="180" height="60" as="geometry" />
        </mxCell>
        <mxCell id="f-ChVy6gcCZhDP5a--pV-13" value="" style="edgeStyle=orthogonalEdgeStyle;rounded=0;orthogonalLoop=1;jettySize=auto;html=1;" parent="1" source="f-ChVy6gcCZhDP5a--pV-3" target="f-ChVy6gcCZhDP5a--pV-5" edge="1">
          <mxGeometry relative="1" as="geometry" />
        </mxCell>
        <mxCell id="f-ChVy6gcCZhDP5a--pV-3" value="N2 =&amp;nbsp;Digite segunda &lt;br&gt;nota do aluno" style="shape=parallelogram;perimeter=parallelogramPerimeter;whiteSpace=wrap;html=1;fixedSize=1;" parent="1" vertex="1">
          <mxGeometry x="320" y="340" width="180" height="60" as="geometry" />
        </mxCell>
        <mxCell id="f-ChVy6gcCZhDP5a--pV-5" value="N3 =&amp;nbsp;Digite terceira&lt;br&gt;nota do aluno" style="shape=parallelogram;perimeter=parallelogramPerimeter;whiteSpace=wrap;html=1;fixedSize=1;" parent="1" vertex="1">
          <mxGeometry x="320" y="434.5" width="180" height="60" as="geometry" />
        </mxCell>
        <mxCell id="f-ChVy6gcCZhDP5a--pV-6" value="N4 =&amp;nbsp;Digite quarta&lt;br&gt;nota do aluno" style="shape=parallelogram;perimeter=parallelogramPerimeter;whiteSpace=wrap;html=1;fixedSize=1;" parent="1" vertex="1">
          <mxGeometry x="320" y="524.5" width="180" height="60" as="geometry" />
        </mxCell>
        <mxCell id="f-ChVy6gcCZhDP5a--pV-7" value="MÉDIA = &lt;u&gt;(N1 + N2 + N3 + N4)&lt;/u&gt;&lt;br&gt;&lt;span style=&quot;white-space: pre&quot;&gt; &lt;/span&gt;&lt;span style=&quot;white-space: pre&quot;&gt; &lt;/span&gt;4" style="rounded=0;whiteSpace=wrap;html=1;" parent="1" vertex="1">
          <mxGeometry x="320" y="620" width="180" height="60" as="geometry" />
        </mxCell>
        <mxCell id="f-ChVy6gcCZhDP5a--pV-22" value="" style="edgeStyle=orthogonalEdgeStyle;rounded=0;orthogonalLoop=1;jettySize=auto;html=1;entryX=0.5;entryY=0;entryDx=0;entryDy=0;exitX=1;exitY=0.5;exitDx=0;exitDy=0;" parent="1" source="f-ChVy6gcCZhDP5a--pV-8" target="4Bvw30j2YTV7XSTsMsoM-2" edge="1">
          <mxGeometry relative="1" as="geometry">
            <mxPoint x="560" y="790" as="targetPoint" />
            <Array as="points">
              <mxPoint x="500" y="750" />
            </Array>
          </mxGeometry>
        </mxCell>
        <mxCell id="f-ChVy6gcCZhDP5a--pV-8" value="MÉDIA &amp;gt;= 7" style="rhombus;whiteSpace=wrap;html=1;" parent="1" vertex="1">
          <mxGeometry x="350" y="710" width="120" height="80" as="geometry" />
        </mxCell>
        <mxCell id="f-ChVy6gcCZhDP5a--pV-9" value="" style="endArrow=classic;html=1;rounded=0;exitX=0.5;exitY=1;exitDx=0;exitDy=0;" parent="1" source="f-ChVy6gcCZhDP5a--pV-7" target="f-ChVy6gcCZhDP5a--pV-8" edge="1">
          <mxGeometry width="50" height="50" relative="1" as="geometry">
            <mxPoint x="390" y="680" as="sourcePoint" />
            <mxPoint x="440" y="630" as="targetPoint" />
          </mxGeometry>
        </mxCell>
        <mxCell id="f-ChVy6gcCZhDP5a--pV-16" value="" style="endArrow=classic;html=1;rounded=0;exitX=0.5;exitY=1;exitDx=0;exitDy=0;entryX=0.5;entryY=0;entryDx=0;entryDy=0;" parent="1" source="f-ChVy6gcCZhDP5a--pV-5" target="f-ChVy6gcCZhDP5a--pV-6" edge="1">
          <mxGeometry width="50" height="50" relative="1" as="geometry">
            <mxPoint x="390" y="650" as="sourcePoint" />
            <mxPoint x="440" y="600" as="targetPoint" />
          </mxGeometry>
        </mxCell>
        <mxCell id="f-ChVy6gcCZhDP5a--pV-17" value="" style="endArrow=classic;html=1;rounded=0;exitX=0.5;exitY=1;exitDx=0;exitDy=0;entryX=0.5;entryY=0;entryDx=0;entryDy=0;" parent="1" source="f-ChVy6gcCZhDP5a--pV-6" target="f-ChVy6gcCZhDP5a--pV-7" edge="1">
          <mxGeometry width="50" height="50" relative="1" as="geometry">
            <mxPoint x="390" y="650" as="sourcePoint" />
            <mxPoint x="440" y="600" as="targetPoint" />
          </mxGeometry>
        </mxCell>
        <mxCell id="f-ChVy6gcCZhDP5a--pV-20" value="True" style="text;html=1;align=center;verticalAlign=middle;resizable=0;points=[];autosize=1;strokeColor=none;fillColor=none;" parent="1" vertex="1">
          <mxGeometry x="320" y="730" width="40" height="20" as="geometry" />
        </mxCell>
        <mxCell id="f-ChVy6gcCZhDP5a--pV-21" value="False" style="text;html=1;align=center;verticalAlign=middle;resizable=0;points=[];autosize=1;strokeColor=none;fillColor=none;" parent="1" vertex="1">
          <mxGeometry x="460" y="730" width="40" height="20" as="geometry" />
        </mxCell>
        <mxCell id="f-ChVy6gcCZhDP5a--pV-24" value="" style="edgeStyle=orthogonalEdgeStyle;rounded=0;orthogonalLoop=1;jettySize=auto;html=1;entryX=0.5;entryY=0;entryDx=0;entryDy=0;exitX=0;exitY=0.5;exitDx=0;exitDy=0;" parent="1" source="f-ChVy6gcCZhDP5a--pV-8" target="4Bvw30j2YTV7XSTsMsoM-1" edge="1">
          <mxGeometry relative="1" as="geometry">
            <mxPoint x="480" y="760" as="sourcePoint" />
            <mxPoint x="260" y="790" as="targetPoint" />
          </mxGeometry>
        </mxCell>
        <mxCell id="4Bvw30j2YTV7XSTsMsoM-6" value="" style="edgeStyle=orthogonalEdgeStyle;rounded=0;orthogonalLoop=1;jettySize=auto;html=1;entryX=0.5;entryY=0;entryDx=0;entryDy=0;" parent="1" source="4Bvw30j2YTV7XSTsMsoM-1" target="4Bvw30j2YTV7XSTsMsoM-3" edge="1">
          <mxGeometry relative="1" as="geometry">
            <mxPoint x="320" y="960" as="targetPoint" />
            <Array as="points">
              <mxPoint x="320" y="890" />
              <mxPoint x="410" y="890" />
            </Array>
          </mxGeometry>
        </mxCell>
        <mxCell id="4Bvw30j2YTV7XSTsMsoM-1" value="Aprovado" style="shape=document;whiteSpace=wrap;html=1;boundedLbl=1;" parent="1" vertex="1">
          <mxGeometry x="260" y="790" width="120" height="80" as="geometry" />
        </mxCell>
        <mxCell id="4Bvw30j2YTV7XSTsMsoM-2" value="Reprovado" style="shape=document;whiteSpace=wrap;html=1;boundedLbl=1;" parent="1" vertex="1">
          <mxGeometry x="440" y="790" width="120" height="80" as="geometry" />
        </mxCell>
        <mxCell id="4Bvw30j2YTV7XSTsMsoM-3" value="FIM" style="ellipse;whiteSpace=wrap;html=1;aspect=fixed;" parent="1" vertex="1">
          <mxGeometry x="370" y="910" width="80" height="80" as="geometry" />
        </mxCell>
        <mxCell id="4Bvw30j2YTV7XSTsMsoM-8" value="" style="endArrow=classic;html=1;rounded=0;entryX=0.5;entryY=0;entryDx=0;entryDy=0;" parent="1" source="4Bvw30j2YTV7XSTsMsoM-2" target="4Bvw30j2YTV7XSTsMsoM-3" edge="1">
          <mxGeometry width="50" height="50" relative="1" as="geometry">
            <mxPoint x="510" y="910" as="sourcePoint" />
            <mxPoint x="440" y="780" as="targetPoint" />
            <Array as="points">
              <mxPoint x="500" y="890" />
              <mxPoint x="410" y="890" />
            </Array>
          </mxGeometry>
        </mxCell>
      </root>
    </mxGraphModel>
  </diagram>
</mxfile>
